<?xml version="1.0" standalone="no"?>
<!DOCTYPE svg PUBLIC "-//W3C//DTD SVG 20010904//EN"
 "http://www.w3.org/TR/2001/REC-SVG-20010904/DTD/svg10.dtd">
<svg version="1.0" xmlns="http://www.w3.org/2000/svg"
 width="1198.000000pt" height="896.000000pt" viewBox="0 0 1198.000000 896.000000"
 preserveAspectRatio="xMidYMid meet">

<g transform="translate(0.000000,896.000000) scale(0.100000,-0.100000)"
fill="#000000" stroke="none">
<path d="M0 4480 l0 -4480 109 0 108 0 7 233 c26 870 156 1698 401 2547 316
1095 794 2124 1305 2810 262 351 597 697 914 944 190 149 500 344 708 447 l87
43 7 50 c16 125 85 257 182 347 146 137 319 180 537 134 28 -6 32 -3 58 45
141 252 461 359 707 235 51 -26 80 -32 80 -16 0 25 121 126 195 162 165 81
347 69 508 -34 l59 -38 158 95 c686 412 1483 698 2196 787 120 15 208 20 301
17 127 -3 133 -5 199 -38 112 -57 154 -129 154 -263 0 -162 -118 -344 -350
-539 -105 -88 -302 -231 -392 -282 -27 -16 -48 -31 -48 -34 0 -4 32 -20 70
-35 79 -32 162 -102 207 -173 24 -39 32 -44 53 -39 14 3 59 9 102 12 156 11
299 -63 379 -197 23 -39 47 -69 53 -66 6 2 56 25 111 50 251 114 546 155 700
99 75 -27 139 -94 160 -167 40 -139 -32 -404 -177 -643 -58 -97 -248 -333
-267 -333 -6 0 -31 -37 -58 -82 -28 -48 -83 -119 -131 -170 l-84 -87 68 -113
c37 -62 101 -167 143 -233 145 -233 229 -437 301 -728 90 -362 90 -544 0 -722
l-30 -60 14 -85 c65 -394 38 -857 -70 -1220 -123 -414 -322 -764 -583 -1027
-181 -183 -420 -346 -568 -389 -119 -35 -213 3 -265 106 -39 77 -48 138 -57
393 -7 220 -8 224 -38 288 -82 175 -240 230 -708 249 -155 6 -284 17 -397 34
-192 30 -263 32 -356 11 -93 -21 -104 -30 -72 -55 52 -41 138 -78 213 -93 129
-26 148 -40 348 -249 201 -211 314 -321 493 -478 124 -109 155 -153 156 -218
1 -110 -108 -169 -260 -142 -36 6 -137 31 -225 55 -315 85 -513 122 -719 131
-67 3 -146 2 -176 -3 l-55 -8 -7 -80 c-9 -111 -51 -309 -92 -440 -53 -165 -66
-231 -66 -330 0 -105 15 -175 67 -314 l37 -101 2788 0 2788 0 0 4480 0 4480
-5990 0 -5990 0 0 -4480z"/>
<path d="M8445 8694 c-16 -3 -84 -11 -150 -20 -480 -60 -1092 -250 -1615 -501
-479 -230 -876 -491 -1365 -900 -104 -87 -244 -196 -310 -242 -144 -101 -313
-266 -368 -361 -21 -36 -45 -89 -53 -119 -20 -67 -15 -153 11 -181 37 -41 137
-50 275 -26 80 15 102 10 120 -24 12 -23 0 -54 -28 -69 -9 -5 -62 -26 -117
-46 -117 -43 -379 -176 -515 -260 -703 -437 -1181 -1154 -1261 -1890 -13 -126
-7 -315 16 -450 97 -583 517 -1208 1090 -1621 237 -171 476 -315 867 -522 232
-123 528 -270 588 -292 69 -26 85 -55 54 -99 -26 -37 -69 -24 -296 86 -877
427 -1435 794 -1755 1156 -357 402 -568 796 -659 1232 -25 117 -27 151 -28
340 0 288 36 481 141 760 106 278 238 501 452 765 235 288 585 573 924 750 64
34 117 65 117 69 0 4 -11 13 -25 19 -37 17 -82 87 -96 149 -37 166 84 405 299
589 40 34 119 94 175 133 107 74 301 230 294 237 -6 7 -322 -43 -461 -71 -178
-37 -327 -78 -541 -150 -1126 -376 -1967 -1106 -2623 -2276 -445 -794 -833
-1844 -1052 -2844 -66 -303 -147 -837 -179 -1180 -13 -141 -30 -487 -34 -682
l-2 -153 2972 0 c1635 0 2973 2 2973 4 0 3 -12 38 -27 78 -64 177 -84 315 -63
438 7 41 34 148 61 238 53 180 87 337 96 454 l6 76 -54 31 c-83 46 -183 133
-239 208 -66 87 -106 171 -170 358 -99 289 -195 451 -399 680 -81 91 -232 229
-274 251 -16 9 -26 18 -23 21 6 7 119 -55 211 -115 138 -92 292 -261 397 -437
66 -111 107 -202 163 -366 81 -233 120 -305 224 -409 47 -47 110 -98 140 -114
53 -28 54 -28 140 -17 245 31 531 -5 951 -120 207 -56 336 -73 358 -46 22 27
-9 68 -135 179 -111 96 -464 443 -583 571 -61 67 -105 92 -175 102 -108 16
-212 67 -306 151 -78 69 -129 132 -242 299 -156 229 -265 329 -677 620 -280
198 -472 359 -550 462 -86 113 -89 177 -12 210 52 22 129 10 507 -83 541 -132
985 -232 1149 -259 198 -33 273 -60 362 -131 80 -64 118 -86 192 -108 l54 -15
90 54 c157 95 314 144 458 145 97 0 170 -19 300 -80 158 -73 202 -85 305 -85
115 0 189 23 395 120 233 111 326 136 499 136 105 0 234 -32 284 -71 14 -11
28 -20 31 -20 19 0 -9 322 -44 504 -47 240 -158 550 -221 614 -53 54 -132 44
-385 -49 -225 -82 -346 -110 -510 -116 -204 -8 -362 29 -484 113 l-48 33 -47
-97 c-158 -328 -439 -578 -788 -701 -233 -82 -439 -107 -657 -81 -192 24 -674
133 -1170 266 -117 31 -147 35 -221 32 -71 -3 -93 -9 -132 -31 -69 -41 -92
-79 -92 -152 1 -150 139 -317 428 -518 603 -418 736 -540 959 -882 47 -71 106
-153 132 -182 91 -101 221 -183 361 -229 70 -23 70 -23 20 -17 -66 7 -206 48
-258 74 -128 65 -223 156 -325 314 -98 150 -173 245 -270 341 -135 134 -362
311 -622 484 -355 236 -524 451 -507 641 18 205 233 289 532 209 502 -136 975
-244 1175 -270 221 -28 472 11 698 108 318 137 551 366 682 669 l38 88 -28 35
c-83 105 -178 366 -220 608 -13 72 -30 97 -30 44 0 -47 -29 -132 -78 -227 -55
-104 -170 -228 -264 -284 -230 -135 -489 -146 -723 -31 -284 140 -458 466
-415 777 24 176 89 311 205 429 95 96 188 154 317 197 85 28 104 31 233 31
158 1 230 -13 350 -69 140 -65 231 -151 331 -314 85 -139 130 -269 195 -562
60 -274 103 -392 191 -522 93 -137 262 -208 498 -209 148 -1 256 22 475 100
233 84 282 96 370 96 92 0 125 -13 175 -71 41 -46 105 -180 156 -326 33 -92
40 -104 47 -85 18 47 19 173 3 283 -50 338 -172 675 -343 941 -39 60 -101 163
-138 229 -221 389 -447 654 -765 894 -371 280 -832 474 -1323 557 l-104 18
-119 -43 c-170 -60 -1104 -359 -1177 -376 -34 -8 -98 -15 -142 -15 -100 0
-138 19 -156 79 -16 55 1 114 61 205 216 325 829 784 1535 1147 643 331 1267
500 1471 398 51 -25 94 -77 94 -113 0 -25 -40 -111 -67 -144 -19 -24 -19 -23
-19 53 1 71 -1 78 -26 100 -37 32 -115 40 -243 26 -446 -50 -1171 -367 -1820
-796 -163 -108 -207 -139 -375 -268 -201 -155 -396 -352 -473 -479 -48 -79
-46 -102 8 -106 70 -6 149 16 710 200 622 204 801 270 1092 404 739 340 1264
714 1397 994 26 54 31 77 31 137 0 87 -17 116 -90 153 -44 22 -64 25 -175 26
-69 1 -138 0 -155 -2z m-1685 -1173 c16 -16 34 -49 41 -75 l11 -46 50 0 c27 0
63 -8 81 -17 l32 -17 -45 -9 c-89 -17 -131 -38 -158 -78 -21 -30 -33 -38 -52
-36 -38 3 -38 41 0 93 l31 44 -20 45 c-25 56 -43 57 -90 4 -118 -134 -128
-139 -183 -90 l-32 29 -49 -34 c-53 -37 -106 -45 -127 -19 -10 12 -7 15 17 21
15 3 48 26 73 49 60 57 82 67 115 55 14 -5 28 -17 31 -25 10 -26 32 -17 62 28
73 104 156 135 212 78z m2265 -3368 c-52 -77 -56 -167 -8 -223 43 -51 111 -31
114 35 1 12 6 4 14 -20 35 -105 3 -233 -79 -322 -30 -32 -72 -69 -95 -81 l-42
-24 32 45 c58 82 47 197 -22 232 -46 24 -86 1 -106 -60 -10 -30 -10 -30 -28
29 -47 160 27 315 190 399 28 14 51 26 53 27 1 0 -9 -17 -23 -37z"/>
<path d="M5525 7916 c-103 -33 -174 -86 -236 -178 -47 -68 -74 -80 -118 -49
-117 84 -262 111 -387 73 -127 -39 -240 -141 -284 -258 -12 -33 -26 -64 -32
-71 -15 -19 -55 -16 -116 7 -159 60 -333 21 -458 -104 -61 -61 -117 -158 -130
-222 l-6 -32 148 60 c440 177 986 309 1375 334 l106 7 114 89 c63 49 169 127
236 174 68 47 125 90 128 94 8 13 -71 56 -134 74 -65 19 -150 20 -206 2z"/>
<path d="M7848 7465 c-87 -46 -247 -125 -357 -176 l-200 -93 167 -42 c204 -50
304 -84 492 -164 374 -159 674 -363 950 -646 116 -119 310 -357 327 -401 10
-25 31 -13 96 56 123 131 170 244 171 416 1 164 -37 260 -141 355 -89 82 -167
114 -304 126 -43 3 -83 12 -88 18 -5 6 -11 49 -13 96 -4 66 -10 96 -30 135
-72 139 -223 197 -375 146 -85 -29 -101 -27 -121 10 -93 171 -205 250 -356
249 -57 -1 -71 -6 -218 -85z m460 -315 c18 -11 42 -36 53 -55 12 -19 26 -35
32 -35 7 0 44 16 83 36 66 33 73 35 112 25 71 -19 109 -97 99 -198 -5 -47 -24
-100 -32 -91 -2 2 -9 34 -15 72 -12 78 -31 121 -61 136 -16 9 -31 5 -84 -24
-83 -47 -134 -49 -167 -6 -13 17 -33 44 -46 60 -29 37 -71 45 -142 26 -30 -8
-57 -12 -60 -10 -10 10 19 39 60 61 55 29 123 30 168 3z m555 -376 c15 -14 29
-35 32 -45 8 -23 13 -23 54 -3 68 34 160 -7 208 -92 34 -60 48 -157 34 -238
-12 -68 -29 -116 -41 -116 -4 0 -10 48 -13 108 -11 212 -81 306 -186 251 -58
-30 -89 -19 -117 40 -24 50 -57 81 -85 81 -26 0 -24 19 4 30 43 17 83 11 110
-16z"/>
<path d="M9498 7190 c-48 -10 -118 -28 -155 -40 -83 -28 -267 -113 -277 -129
-8 -13 -8 -13 94 -35 184 -40 306 -135 389 -303 35 -69 64 -205 59 -268 -2
-25 0 -45 3 -45 10 0 117 148 158 219 86 146 151 344 151 456 0 79 -26 122
-90 147 -61 23 -218 22 -332 -2z"/>
<path d="M6910 6001 c-86 -28 -134 -56 -203 -121 -320 -299 -139 -848 301
-912 195 -28 391 58 498 218 89 136 111 300 60 459 -58 182 -183 305 -365 359
-74 22 -219 20 -291 -3z"/>
<path d="M6601 5973 c-122 -73 -246 -230 -286 -363 -107 -361 85 -735 440
-856 111 -38 274 -40 385 -6 100 31 187 81 260 149 81 74 99 107 36 63 -142
-97 -318 -131 -491 -95 -242 51 -449 260 -501 505 -44 209 28 444 180 589 30
28 52 51 48 51 -4 0 -36 -17 -71 -37z"/>
<path d="M5202 3659 c72 -90 317 -290 561 -459 l78 -54 63 17 c40 11 102 17
164 17 175 0 314 -48 515 -179 286 -185 395 -213 675 -172 165 24 302 27 387
7 33 -8 62 -13 64 -11 6 7 -46 72 -95 119 -67 63 -140 104 -279 152 -152 53
-167 60 -278 140 -96 69 -160 94 -292 114 -164 24 -396 76 -1000 221 -358 86
-549 129 -575 129 -19 0 -18 -4 12 -41z"/>
<path d="M9215 3400 c-92 -24 -151 -48 -285 -115 -159 -80 -275 -117 -385
-123 -114 -6 -181 11 -340 84 -66 31 -151 63 -190 71 -92 20 -211 12 -307 -21
-64 -21 -248 -111 -248 -121 0 -2 20 -13 44 -24 106 -47 206 -133 316 -274 29
-38 94 -101 145 -142 212 -169 354 -424 390 -703 8 -64 19 -216 24 -337 5
-121 15 -238 21 -259 7 -22 25 -53 41 -69 26 -26 35 -29 72 -24 58 8 204 84
316 164 367 264 650 686 797 1187 61 211 116 565 93 607 -15 30 -98 81 -161
101 -81 24 -246 24 -343 -2z"/>
<path d="M5963 3093 c-13 -2 -23 -8 -23 -12 0 -5 44 -41 98 -81 152 -114 273
-243 385 -410 53 -80 109 -160 125 -178 l27 -33 50 21 c126 54 293 64 494 30
145 -24 324 -40 461 -40 185 0 422 -42 537 -95 38 -17 53 -20 53 -11 0 15 -97
172 -146 236 -76 99 -257 206 -396 234 -102 21 -166 20 -355 -5 -303 -40 -437
-9 -698 161 -221 144 -347 191 -504 189 -47 -1 -96 -4 -108 -6z"/>
</g>
</svg>
